<svg width="800" height="800" viewBox="0 0 800 800" fill="none" xmlns="http://www.w3.org/2000/svg">
<g clip-path="url(#clip0_317_1022)">
<path d="M6.87764 459.229C6.57197 456.937 6.57197 454.491 6.87764 451.893C14.2138 451.129 19.4866 450.441 22.6962 449.83C25.9058 449.066 27.8927 447.537 28.6568 445.245C29.421 442.952 29.8031 439.055 29.8031 433.553V326.949C29.8031 320.53 29.421 315.945 28.6568 313.194C27.8927 310.443 25.9058 308.685 22.6962 307.921C19.4866 307.004 14.2138 306.24 6.87764 305.629C6.57197 303.336 6.57197 300.891 6.87764 298.292C9.93437 298.292 13.6789 298.369 18.1111 298.522C22.6962 298.522 27.2049 298.598 31.6371 298.751C36.0694 298.751 39.6611 298.751 42.4121 298.751C45.316 298.751 48.8312 298.751 52.9578 298.751C57.2372 298.598 61.5167 298.522 65.7961 298.522C70.2283 298.369 73.9728 298.292 77.0296 298.292C77.4881 300.585 77.4881 303.03 77.0296 305.629C69.9991 306.24 64.9555 306.928 61.8988 307.692C58.842 308.456 56.9316 309.984 56.1674 312.277C55.4032 314.57 55.0211 318.467 55.0211 323.969V380.595L107.75 324.657C113.557 318.39 116.461 314.111 116.461 311.819C116.461 309.832 115.086 308.456 112.335 307.692C109.584 306.775 105.075 306.087 98.8088 305.629C98.5031 303.03 98.5031 300.585 98.8088 298.292C101.407 298.292 104.693 298.369 108.667 298.522C112.64 298.522 116.614 298.598 120.588 298.751C124.562 298.751 127.771 298.751 130.217 298.751C135.107 298.751 139.693 298.675 143.972 298.522C148.404 298.369 153.219 298.292 158.415 298.292C158.721 300.738 158.721 303.183 158.415 305.629C153.677 306.087 149.703 306.698 146.494 307.463C143.437 308.227 140.457 309.526 137.553 311.36C134.802 313.194 131.669 315.792 128.153 319.155C124.638 322.517 120.206 326.949 114.857 332.451L81.1561 367.298L128.383 429.426C132.051 434.164 135.107 437.985 137.553 440.889C139.998 443.64 142.367 445.78 144.66 447.308C147.105 448.684 149.856 449.677 152.913 450.288C156.122 450.9 160.173 451.435 165.063 451.893C165.522 454.338 165.522 456.784 165.063 459.229C162.159 459.229 158.721 459.153 154.747 459C150.773 459 146.876 459 143.055 459C139.234 458.847 135.948 458.771 133.197 458.771C131.516 458.771 129.3 458.847 126.549 459C123.95 459 121.581 459 119.442 459L64.4206 384.951L55.0211 395.267V430.572C55.0211 436.992 55.4032 441.653 56.1674 444.557C56.9316 447.308 58.842 449.066 61.8988 449.83C65.1083 450.594 70.1519 451.282 77.0296 451.893C77.4881 454.338 77.4881 456.784 77.0296 459.229C73.9728 459.229 70.2283 459.153 65.7961 459C61.5167 459 57.1608 459 52.7286 459C48.4492 458.847 44.8575 458.771 41.9536 458.771C39.0497 458.771 35.4581 458.847 31.1786 459C26.8992 459 22.5434 459 18.1111 459C13.8317 459.153 10.0872 459.229 6.87764 459.229ZM251.686 461.293C241.599 461.293 235.256 456.249 232.658 446.162C221.806 456.555 210.726 461.751 199.416 461.751C191.621 461.751 184.973 459.459 179.471 454.873C174.121 450.135 171.447 443.64 171.447 435.387C171.447 415.212 192.003 402.527 233.116 397.33C233.116 393.662 233.116 389.918 233.116 386.097C233.269 382.276 233.345 378.226 233.345 373.947C233.345 368.597 231.359 364.471 227.385 361.567C223.564 358.51 218.902 356.982 213.4 356.982C209.427 356.982 206.064 357.593 203.313 358.816C203.313 362.331 202.549 365.923 201.021 369.591C199.492 373.259 197.352 376.392 194.601 378.99C192.003 381.436 188.794 382.658 184.973 382.658C181.61 382.658 178.936 381.741 176.949 379.907C175.115 377.92 174.198 375.551 174.198 372.8C174.198 369.132 175.879 365.693 179.241 362.484C182.757 359.121 187.189 356.294 192.538 354.001C197.887 351.556 203.466 349.646 209.274 348.27C215.081 346.894 220.278 346.207 224.863 346.207C230.518 346.207 235.714 347.277 240.452 349.416C245.343 351.403 249.24 354.46 252.144 358.586C255.201 362.56 256.729 367.527 256.729 373.488C256.729 377.156 256.653 381.97 256.5 387.931C256.347 393.739 256.194 400.005 256.042 406.73C256.042 413.302 255.965 419.568 255.812 425.529C255.66 431.489 255.583 436.304 255.583 439.972C255.583 444.863 257.723 447.308 262.002 447.308C264.753 447.308 268.956 446.391 274.611 444.557C275.223 445.321 275.605 446.162 275.758 447.079C276.063 447.996 276.292 448.836 276.445 449.601C272.624 453.727 268.574 456.707 264.295 458.541C260.168 460.376 255.965 461.293 251.686 461.293ZM232.658 439.972L233.116 405.584C219.055 407.418 209.35 410.398 204.001 414.525C198.804 418.651 196.206 423.924 196.206 430.343C196.206 435.692 197.582 439.819 200.333 442.723C203.237 445.474 206.828 446.85 211.108 446.85C213.859 446.85 216.916 446.238 220.278 445.015C223.793 443.793 227.92 442.112 232.658 439.972ZM186.348 307.463H250.998C251.457 311.284 251.457 315.104 250.998 318.925H186.348C185.89 315.104 185.89 311.284 186.348 307.463ZM283.131 459.229C282.673 456.784 282.673 454.415 283.131 452.122C288.328 451.817 292.149 451.358 294.594 450.747C297.039 449.983 298.644 448.454 299.408 446.162C300.173 443.869 300.555 440.201 300.555 435.158V383.804C300.555 377.844 300.249 373.412 299.638 370.508C299.179 367.604 297.727 365.617 295.282 364.547C292.989 363.324 289.015 362.331 283.361 361.567C282.902 359.427 282.902 357.44 283.361 355.606C289.474 354.383 295.435 353.008 301.242 351.48C307.05 349.798 313.164 347.659 319.583 345.06L323.48 346.436V366.61C334.179 353.008 345.106 346.207 356.264 346.207C361.613 346.207 365.587 347.659 368.185 350.563C370.783 353.314 372.082 356.447 372.082 359.962C372.082 364.089 370.707 367.298 367.956 369.591C365.204 371.73 362.071 372.8 358.556 372.8C355.652 372.8 352.748 372.036 349.844 370.508C347.093 368.979 345.03 366.61 343.655 363.401C338.458 363.401 333.797 365.464 329.67 369.591C325.696 373.564 323.709 378.226 323.709 383.575V432.865C323.709 438.826 324.015 443.105 324.626 445.703C325.391 448.301 327.225 449.983 330.128 450.747C333.185 451.358 338.076 451.817 344.801 452.122C345.106 454.262 345.106 456.631 344.801 459.229C339.604 459.229 334.255 459.153 328.753 459C323.251 458.847 317.596 458.771 311.788 458.771C306.133 458.771 301.09 458.847 296.657 459C292.378 459.153 287.869 459.229 283.131 459.229ZM392.522 517.46C388.395 517.46 385.185 516.237 382.893 513.792C380.753 511.499 379.683 508.748 379.683 505.539C379.683 501.259 381.976 497.056 386.561 492.93C391.146 488.956 398.635 486.969 409.028 486.969C411.015 483.454 412.925 479.633 414.759 475.506C416.746 471.533 419.039 466.565 421.637 460.605C419.956 456.325 417.816 450.823 415.218 444.098C412.62 437.374 409.639 429.961 406.277 421.861C403.067 413.608 399.781 405.125 396.419 396.413C393.057 387.549 389.771 378.99 386.561 370.737C384.727 365.846 382.664 362.484 380.371 360.65C378.231 358.816 374.028 357.593 367.762 356.982C367.304 354.842 367.304 352.473 367.762 349.875C372.194 349.875 376.703 349.951 381.288 350.104C385.873 350.257 390.611 350.333 395.502 350.333C399.934 350.333 404.749 350.257 409.945 350.104C415.141 349.951 419.574 349.875 423.242 349.875C423.547 352.167 423.547 354.536 423.242 356.982C418.045 357.287 414.377 357.822 412.237 358.586C410.251 359.351 409.257 360.879 409.257 363.172C409.257 365.311 410.021 368.597 411.55 373.029C415.523 383.881 419.344 393.892 423.012 403.062C426.833 412.232 430.654 421.631 434.475 431.26C439.366 420.103 443.645 410.092 447.313 401.228C451.134 392.363 454.955 383.117 458.776 373.488C460.457 369.056 461.298 365.77 461.298 363.63C461.298 361.49 460.152 359.962 457.859 359.045C455.567 358.128 451.516 357.44 445.709 356.982C445.25 354.536 445.25 352.167 445.709 349.875C449.53 349.875 453.427 349.951 457.401 350.104C461.527 350.257 465.883 350.333 470.468 350.333C473.525 350.333 476.811 350.257 480.326 350.104C483.994 349.951 487.28 349.875 490.184 349.875C490.643 352.167 490.643 354.536 490.184 356.982C483.765 357.44 479.409 358.892 477.117 361.338C474.824 363.63 472.684 367.145 470.697 371.883L431.495 463.356C430.731 465.19 429.355 468.247 427.368 472.526C425.381 476.958 423.242 481.467 420.949 486.052C418.809 490.79 416.975 494.687 415.447 497.744C411.626 505.233 407.882 510.353 404.214 513.104C400.546 516.008 396.648 517.46 392.522 517.46ZM568.702 461.293C558.615 461.293 552.272 456.249 549.674 446.162C538.822 456.555 527.742 461.751 516.432 461.751C508.637 461.751 501.989 459.459 496.487 454.873C491.138 450.135 488.463 443.64 488.463 435.387C488.463 415.212 509.019 402.527 550.132 397.33C550.132 393.662 550.132 389.918 550.132 386.097C550.285 382.276 550.362 378.226 550.362 373.947C550.362 368.597 548.375 364.471 544.401 361.567C540.58 358.51 535.919 356.982 530.416 356.982C526.443 356.982 523.08 357.593 520.329 358.816C520.329 362.331 519.565 365.923 518.037 369.591C516.508 373.259 514.369 376.392 511.618 378.99C509.019 381.436 505.81 382.658 501.989 382.658C498.626 382.658 495.952 381.741 493.965 379.907C492.131 377.92 491.214 375.551 491.214 372.8C491.214 369.132 492.895 365.693 496.258 362.484C499.773 359.121 504.205 356.294 509.554 354.001C514.904 351.556 520.482 349.646 526.29 348.27C532.098 346.894 537.294 346.207 541.879 346.207C547.534 346.207 552.731 347.277 557.469 349.416C562.359 351.403 566.257 354.46 569.161 358.586C572.217 362.56 573.746 367.527 573.746 373.488C573.746 377.156 573.669 381.97 573.516 387.931C573.364 393.739 573.211 400.005 573.058 406.73C573.058 413.302 572.981 419.568 572.829 425.529C572.676 431.489 572.599 436.304 572.599 439.972C572.599 444.863 574.739 447.308 579.018 447.308C581.77 447.308 585.973 446.391 591.627 444.557C592.239 445.321 592.621 446.162 592.774 447.079C593.079 447.996 593.309 448.836 593.462 449.601C589.641 453.727 585.59 456.707 581.311 458.541C577.184 460.376 572.981 461.293 568.702 461.293ZM549.674 439.972L550.132 405.584C536.071 407.418 526.366 410.398 521.017 414.525C515.821 418.651 513.222 423.924 513.222 430.343C513.222 435.692 514.598 439.819 517.349 442.723C520.253 445.474 523.845 446.85 528.124 446.85C530.875 446.85 533.932 446.238 537.294 445.015C540.809 443.793 544.936 442.112 549.674 439.972ZM739.305 459.229C738.847 456.784 738.847 454.415 739.305 452.122C743.89 451.817 747.329 451.358 749.622 450.747C751.914 449.983 753.442 448.454 754.207 446.162C755.124 443.869 755.582 440.201 755.582 435.158V388.848C755.582 379.831 754.207 373.03 751.456 368.444C748.857 363.859 743.432 361.567 735.179 361.567C724.938 361.567 716.227 365.388 709.043 373.029C709.349 375.475 709.502 378.073 709.502 380.824V432.865C709.502 438.826 709.808 443.105 710.419 445.703C711.183 448.301 712.712 449.983 715.004 450.747C717.297 451.358 720.812 451.817 725.55 452.122C725.855 454.415 725.855 456.784 725.55 459.229C721.27 459.229 716.991 459.153 712.712 459C708.432 458.847 703.389 458.771 697.581 458.771C691.926 458.771 686.959 458.847 682.679 459C678.553 459.153 674.579 459.229 670.758 459.229C670.299 456.784 670.299 454.415 670.758 452.122C675.19 451.817 678.476 451.358 680.616 450.747C682.908 449.983 684.437 448.454 685.201 446.162C685.965 443.869 686.347 440.201 686.347 435.158V388.848C686.347 379.831 685.048 373.03 682.45 368.444C679.852 363.859 674.35 361.567 665.944 361.567C656.315 361.567 647.909 365.464 640.726 373.259V432.865C640.726 438.826 641.031 443.105 641.643 445.703C642.407 448.301 643.935 449.983 646.228 450.747C648.673 451.358 652.341 451.817 657.232 452.122C657.538 454.415 657.538 456.784 657.232 459.229C652.953 459.229 648.52 459.153 643.935 459C639.503 458.847 634.383 458.771 628.575 458.771C623.073 458.771 618.106 458.847 613.674 459C609.241 459.153 604.733 459.229 600.148 459.229C599.689 456.784 599.689 454.415 600.148 452.122C605.344 451.817 609.165 451.358 611.61 450.747C614.056 449.983 615.66 448.454 616.425 446.162C617.189 443.869 617.571 440.201 617.571 435.158V383.804C617.571 377.844 617.265 373.412 616.654 370.508C616.195 367.604 614.743 365.617 612.298 364.547C610.005 363.324 606.032 362.331 600.377 361.567C599.918 359.427 599.918 357.44 600.377 355.606C606.796 354.383 612.986 352.932 618.946 351.25C624.907 349.569 630.791 347.506 636.599 345.06L640.496 346.436V363.401C652.876 351.938 665.791 346.207 679.24 346.207C687.646 346.207 693.989 347.964 698.269 351.48C702.548 354.995 705.528 359.351 707.209 364.547C713.781 358.281 720.506 353.696 727.384 350.792C734.261 347.735 741.216 346.207 748.246 346.207C758.333 346.207 765.899 349.187 770.942 355.148C776.139 361.108 778.737 369.667 778.737 380.824V432.865C778.737 438.826 779.043 443.105 779.654 445.703C780.265 448.301 781.717 449.983 784.01 450.747C786.302 451.358 789.818 451.817 794.555 452.122C795.014 454.415 795.014 456.784 794.555 459.229C790.276 459.229 785.997 459.153 781.717 459C777.438 458.847 772.471 458.771 766.816 458.771C761.008 458.771 755.888 458.847 751.456 459C747.176 459.153 743.126 459.229 739.305 459.229Z" fill="black"/>
</g>
<defs>
<clipPath id="clip0_317_1022">
<rect width="800" height="800" fill="white"/>
</clipPath>
</defs>
</svg>
